<?xml version="1.0" standalone="no"?>
<!DOCTYPE svg PUBLIC "-//W3C//DTD SVG 20010904//EN"
 "http://www.w3.org/TR/2001/REC-SVG-20010904/DTD/svg10.dtd">
<svg version="1.0" xmlns="http://www.w3.org/2000/svg"
 width="512.000000pt" height="512.000000pt" viewBox="0 0 512.000000 512.000000"
 preserveAspectRatio="xMidYMid meet">

<g transform="translate(0.000000,512.000000) scale(0.100000,-0.100000)"
fill="#000000" stroke="none">
<path d="M2383 4420 c-53 -12 -83 -38 -109 -93 -13 -29 -24 -58 -24 -64 0 -18
-3 -17 -63 14 -75 38 -179 44 -241 13 -56 -27 -98 -84 -122 -166 l-18 -59 -61
-1 c-83 -3 -160 -39 -198 -94 -21 -30 -22 -109 -2 -136 8 -10 15 -22 15 -25 0
-3 -24 -15 -54 -28 -58 -24 -76 -49 -76 -105 0 -32 -1 -33 -51 -39 -69 -8
-137 -49 -156 -95 -12 -30 -13 -43 -1 -91 l13 -56 -34 -33 -34 -32 7 -109 c5
-93 16 -192 53 -473 6 -47 5 -48 -20 -48 -32 0 -27 -26 -77 378 -41 330 -48
356 -96 368 -41 10 -78 -5 -434 -180 -365 -179 -370 -183 -370 -265 0 -87 64
-169 146 -186 46 -9 98 13 252 109 121 75 162 96 162 83 0 -2 13 -68 30 -145
16 -78 30 -148 30 -155 0 -11 -43 -15 -207 -20 -255 -8 -249 -5 -247 -130 2
-100 31 -262 50 -278 7 -6 38 -11 67 -10 l54 0 17 -102 c121 -698 193 -1074
214 -1109 41 -70 250 -130 528 -153 l81 -7 14 -46 c18 -57 46 -75 149 -96 380
-76 1328 -85 1868 -18 l57 7 35 64 35 63 155 52 c85 29 187 65 225 81 206 83
933 439 942 460 8 21 -43 119 -125 240 -58 85 -72 100 -93 97 -13 -1 -59 -3
-101 -5 -64 -2 -81 1 -105 19 -35 25 -63 79 -63 120 0 38 35 92 77 119 58 37
66 80 26 138 -31 45 -167 157 -190 157 -9 0 -72 -29 -140 -64 -114 -60 -124
-64 -133 -46 -20 36 -10 66 40 125 28 33 50 62 50 66 0 21 -146 129 -174 129
-17 0 -112 -55 -166 -95 -19 -14 -36 -21 -38 -16 -2 6 8 68 22 138 69 343 87
571 52 662 -9 25 -28 60 -42 78 l-25 34 17 52 c11 32 19 82 19 129 0 70 -2 79
-31 114 -17 21 -58 53 -93 72 -50 28 -61 38 -56 53 16 48 -42 132 -101 148
-32 9 -32 10 -9 91 23 84 20 147 -12 211 -69 135 -248 170 -355 68 l-39 -37
-53 53 c-41 41 -66 57 -108 70 -106 30 -233 19 -273 -25 -16 -18 -18 -18 -60
15 -61 46 -145 64 -222 45z m146 -61 c28 -10 31 -15 31 -55 0 -34 5 -46 21
-54 11 -7 27 -9 34 -6 9 3 15 -7 19 -32 4 -20 9 -49 12 -64 l5 -26 -38 14
c-21 7 -51 13 -68 14 -45 0 -146 -52 -184 -95 -76 -87 -107 -218 -67 -279 10
-15 16 -29 14 -31 -10 -8 -50 -26 -52 -23 -2 2 -11 27 -22 56 -10 29 -30 67
-45 85 -27 32 -27 32 -145 38 -66 3 -127 9 -136 13 -33 15 -38 60 -17 138 24
86 59 145 97 159 34 13 93 -1 173 -41 35 -18 74 -30 97 -30 26 0 45 -7 57 -20
22 -24 33 -25 56 -4 17 16 17 18 -1 55 -22 42 -26 109 -9 141 12 22 82 57 115
58 12 0 35 -5 53 -11z m424 -52 c30 -14 61 -35 67 -47 7 -12 18 -63 26 -114
10 -59 21 -95 31 -103 26 -20 32 -16 38 25 21 130 46 181 102 207 72 35 163 2
198 -72 19 -40 17 -122 -6 -221 -11 -46 -18 -56 -50 -72 -36 -19 -37 -19 -55
1 -52 57 -115 60 -179 9 -21 -17 -39 -30 -40 -30 -1 0 -23 21 -49 46 l-46 47
-57 -7 c-31 -4 -77 -16 -101 -26 -25 -11 -46 -19 -48 -17 -2 1 -17 45 -35 97
-32 95 -47 206 -35 254 15 61 132 72 239 23z m-309 -255 c37 -21 73 -89 82
-155 6 -43 4 -51 -21 -77 -21 -22 -28 -40 -29 -74 -2 -35 -8 -50 -28 -66 -14
-11 -29 -20 -32 -20 -3 0 -19 26 -35 58 -41 82 -48 85 -136 80 l-74 -5 -11 30
c-24 70 -6 140 53 195 65 62 158 76 231 34z m-856 -92 c4 -45 19 -60 90 -95
31 -16 59 -30 61 -31 1 -2 -8 -18 -22 -36 -31 -40 -55 -98 -65 -158 l-7 -44
-52 3 c-54 3 -91 -11 -150 -56 -25 -18 -33 -20 -33 -9 0 8 -25 42 -55 74 -30
33 -55 67 -55 75 0 40 95 63 136 32 25 -19 44 -19 73 1 l23 16 -25 27 c-69 73
-92 135 -66 182 17 32 70 60 109 57 32 -3 35 -6 38 -38z m1188 -87 c32 -21 82
-124 96 -201 l12 -64 -35 -31 c-56 -50 -69 -71 -93 -144 l-23 -68 -84 -7 c-46
-4 -89 -6 -95 -4 -6 3 -14 30 -16 61 -4 48 -10 62 -36 86 -38 35 -39 48 -11
105 16 34 29 46 64 60 81 31 135 0 135 -78 l0 -48 35 0 c32 0 35 2 35 31 0 52
-21 116 -46 139 -18 18 -39 24 -94 28 -38 2 -70 9 -70 14 0 20 32 76 55 98 30
28 93 51 124 44 12 -3 34 -12 47 -21z m268 -5 c11 -15 16 -45 16 -90 l0 -68
30 0 c29 0 30 1 30 49 0 38 6 56 24 78 21 25 31 28 81 28 52 0 59 -3 86 -33
34 -38 32 -58 -8 -106 -53 -63 -81 -139 -94 -249 l-12 -106 -46 -5 c-48 -6
-215 -10 -290 -7 l-44 1 6 40 c7 55 43 125 74 145 43 29 97 25 133 -10 18 -17
39 -42 48 -57 12 -21 24 -28 48 -28 39 0 48 18 34 71 -16 60 -104 109 -196
109 l-43 0 -7 56 c-10 82 1 143 33 176 33 35 75 37 97 6z m-1101 -66 c9 -8 29
-39 43 -68 l26 -53 -25 -63 c-13 -35 -27 -71 -30 -81 -6 -15 -10 -16 -28 -7
-24 13 -71 7 -114 -16 -27 -14 -30 -14 -43 3 -75 97 -42 252 63 299 34 15 82
9 108 -14z m321 -96 c39 -16 86 -100 86 -152 0 -27 -4 -32 -29 -37 -44 -9 -91
-62 -91 -103 l0 -35 -67 3 c-64 3 -68 5 -90 37 -37 55 -48 104 -34 152 18 58
74 116 130 133 59 19 56 18 95 2z m1169 -47 c74 -20 99 -123 60 -247 l-17 -55
-99 6 c-55 3 -103 9 -108 14 -12 12 10 151 34 213 14 35 31 59 47 67 31 15 35
16 83 2z m-2124 -117 c20 -21 44 -50 53 -65 29 -43 69 -44 122 -3 28 21 67 39
101 47 53 12 57 11 83 -12 15 -13 44 -33 65 -43 28 -14 36 -24 31 -35 -4 -9
-9 -33 -12 -55 l-4 -39 -152 7 c-216 10 -397 25 -428 38 -55 21 -76 99 -40
145 24 30 71 53 111 53 26 0 42 -9 70 -38z m614 -83 c31 -16 87 -71 87 -85 0
-13 -54 -24 -127 -24 l-53 0 0 38 c0 68 40 98 93 71z m507 -24 c17 -9 30 -17
30 -19 0 -3 3 -11 6 -20 5 -14 -5 -16 -74 -16 -81 0 -97 6 -86 33 13 35 78 46
124 22z m-1601 -125 c32 -149 87 -580 77 -605 -4 -13 -19 -15 -68 -13 l-62 3
-24 85 c-42 153 -102 339 -112 345 -11 7 -78 -27 -185 -94 l-80 -50 -12 44
c-8 26 -27 55 -48 74 l-35 31 87 44 c49 24 153 71 233 105 80 34 154 66 165
71 43 19 53 12 64 -40z m456 -73 l99 -12 7 -35 c14 -64 58 -393 73 -535 22
-203 34 -387 46 -670 24 -599 32 -750 46 -913 8 -96 12 -177 9 -182 -13 -22
-199 -22 -234 -1 -16 10 -23 61 -85 621 -88 791 -141 1340 -153 1598 l-6 142
49 -1 c27 0 94 -6 149 -12z m1033 -244 l2 -232 -47 -7 c-69 -10 -142 -39 -212
-84 -34 -22 -61 -34 -61 -27 0 6 -7 100 -14 207 -8 107 -16 233 -18 279 -3 83
-2 85 22 92 14 4 93 7 175 6 l150 -2 3 -232z m387 -50 c-4 -159 -8 -289 -9
-290 -1 -1 -40 18 -88 42 -47 24 -111 49 -141 55 l-54 13 -7 90 c-3 49 -6 152
-6 228 0 123 2 138 18 142 9 3 79 5 156 6 l138 1 -7 -287z m474 271 c2 -2 -13
-223 -33 -491 -20 -268 -52 -724 -71 -1013 -34 -512 -60 -829 -70 -861 -6 -19
-70 -29 -192 -29 l-83 0 0 366 0 367 78 81 c131 137 192 287 192 473 0 195
-54 347 -161 455 l-63 63 1 200 c1 110 5 244 8 297 l7 97 72 4 c72 4 308 -3
315 -9z m338 2 c3 -3 -13 -126 -36 -273 -94 -613 -130 -885 -166 -1263 -32
-335 -68 -606 -105 -777 -11 -50 -14 -53 -52 -63 -22 -6 -42 -9 -44 -7 -4 4
25 593 81 1617 36 654 44 763 58 773 12 9 255 2 264 -7z m-1633 -63 c3 -32 13
-169 22 -304 l16 -247 -46 -42 c-65 -60 -135 -170 -169 -265 -38 -104 -47
-261 -23 -375 33 -159 143 -313 263 -369 l50 -23 7 -121 c3 -66 6 -218 6 -339
l0 -218 -112 1 c-62 1 -138 4 -168 7 l-55 7 -17 255 c-73 1093 -138 1861 -174
2058 l-6 32 200 0 200 0 6 -57z m-1651 -113 c48 -38 44 -112 -7 -146 -38 -24
-74 -11 -93 33 -37 90 31 167 100 113z m2252 -425 c122 -32 244 -121 309 -224
111 -175 86 -392 -68 -597 -105 -141 -285 -228 -431 -210 -280 36 -492 278
-472 541 17 226 196 418 451 485 88 23 135 24 211 5z m-1459 -47 c4 -6 10 -47
12 -90 l5 -78 -346 0 c-395 0 -359 -9 -376 96 -5 33 -8 60 -6 62 5 6 357 19
537 20 120 2 169 -1 174 -10z m2763 -114 l30 -25 -34 -51 c-46 -66 -50 -86
-31 -150 12 -40 12 -54 3 -60 -7 -4 -73 -45 -147 -92 -74 -47 -135 -84 -136
-83 -1 1 6 71 15 156 l16 153 45 40 c62 55 180 138 196 138 7 0 26 -12 43 -26z
m-2746 -173 c5 -5 15 -65 23 -133 48 -426 114 -1052 114 -1074 l0 -27 -77 7
c-91 8 -354 55 -367 67 -10 9 -29 111 -111 599 -87 525 -92 559 -74 572 18 12
479 2 492 -11z m3099 -101 l37 -31 -44 -65 c-44 -64 -75 -144 -75 -193 0 -43
46 -128 94 -175 80 -78 147 -99 261 -86 l40 5 38 -73 c22 -41 37 -75 35 -77
-1 -2 -163 -66 -358 -143 -195 -77 -451 -178 -569 -226 -118 -47 -217 -83
-220 -81 -9 10 38 664 54 750 5 27 37 49 328 227 177 108 327 197 332 197 6 1
27 -13 47 -29z m-1475 -1001 c-3 -188 -8 -344 -11 -346 -9 -10 -183 -16 -231
-9 l-47 8 7 201 c4 111 10 252 14 312 l6 110 50 7 c28 3 84 17 125 31 41 14
79 25 84 26 6 1 7 -137 3 -340z m-536 307 c25 -8 76 -17 114 -21 l68 -8 -5
-296 c-3 -163 -9 -304 -13 -315 -7 -16 -18 -18 -111 -14 -56 2 -106 6 -109 10
-5 4 4 658 9 658 1 0 22 -6 47 -14z"/>
<path d="M2655 2333 l-50 -18 2 -50 c1 -46 72 -313 109 -414 16 -41 18 -43 47
-37 17 4 35 10 40 15 7 7 -20 146 -38 192 -4 11 3 20 23 28 44 19 70 50 81
102 13 58 -7 134 -43 169 -34 31 -104 36 -171 13z m120 -68 c31 -30 35 -100 8
-121 -35 -26 -51 -17 -68 38 -18 62 -19 80 -3 96 18 18 36 15 63 -13z"/>
<path d="M2236 2245 c-69 -28 -89 -45 -80 -68 5 -15 11 -14 52 7 68 34 106 40
126 21 38 -38 -3 -100 -72 -111 l-40 -6 4 -62 c13 -174 12 -173 63 -159 23 6
23 9 19 88 l-4 82 53 28 c87 45 109 120 54 176 -38 37 -92 38 -175 4z"/>
<path d="M2464 1979 c-47 -14 -76 -51 -81 -106 -6 -60 19 -97 77 -114 76 -23
170 39 170 112 0 29 -32 84 -57 97 -30 16 -76 21 -109 11z m80 -75 c45 -44
-16 -105 -75 -74 -22 12 -26 59 -7 78 17 17 64 15 82 -4z"/>
<path d="M828 2222 c-22 -4 -23 -28 -3 -124 28 -133 41 -156 81 -141 14 5 15
18 9 87 -14 155 -17 169 -45 176 -14 3 -33 4 -42 2z"/>
<path d="M1074 1943 c-10 -37 3 -52 82 -100 74 -47 104 -54 104 -25 0 25 -143
152 -171 152 -5 0 -12 -12 -15 -27z"/>
<path d="M1035 1730 c-4 -20 -2 -37 6 -46 14 -17 207 -134 221 -134 20 0 6 58
-19 82 -39 36 -174 128 -189 128 -7 0 -15 -14 -19 -30z"/>
<path d="M1027 1543 c-4 -3 -7 -19 -7 -34 0 -34 18 -47 163 -124 106 -56 107
-57 107 -32 0 30 -46 70 -167 146 -90 56 -87 54 -96 44z"/>
<path d="M1026 1314 c-3 -9 -6 -29 -6 -45 0 -28 6 -33 93 -74 115 -54 117 -55
128 -27 7 20 1 28 -54 68 -34 25 -83 57 -109 70 -40 20 -47 21 -52 8z"/>
<path d="M3941 1794 c-111 -40 -186 -112 -211 -203 -43 -162 123 -333 285
-292 100 25 180 86 216 165 22 49 25 152 6 199 -48 112 -182 173 -296 131z
m122 -103 c37 -14 76 -61 83 -99 23 -119 -116 -228 -223 -176 -79 39 -107 135
-60 204 40 61 137 95 200 71z"/>
</g>
</svg>
